<?xml version="1.0" standalone="no"?>
<!DOCTYPE svg PUBLIC "-//W3C//DTD SVG 20010904//EN"
 "http://www.w3.org/TR/2001/REC-SVG-20010904/DTD/svg10.dtd">
<svg version="1.0" xmlns="http://www.w3.org/2000/svg"
 width="700.000000pt" height="700.000000pt" viewBox="0 0 700.000000 700.000000"
 preserveAspectRatio="xMidYMid meet">
<metadata>
Created by potrace 1.14, written by Peter Selinger 2001-2017
</metadata>
<g transform="translate(0.000000,700.000000) scale(0.100000,-0.100000)"
fill="#000000" stroke="none">
<path d="M512 6985 c-182 -40 -358 -178 -439 -345 -79 -161 -73 103 -73 -3140
0 -3243 -6 -2979 73 -3140 59 -121 169 -231 289 -289 158 -77 -102 -71 3106
-71 2630 0 2889 1 2955 16 231 53 402 208 484 439 l28 80 0 2965 0 2965 -31
86 c-72 201 -214 344 -416 417 l-73 27 -2920 2 c-2450 1 -2930 -1 -2983 -12z
m1898 -1495 c118 -5 328 -17 465 -27 360 -23 880 -22 1315 5 190 12 434 24
542 28 237 8 260 3 337 -82 57 -62 77 -114 91 -235 19 -166 8 -313 -27 -351
-28 -32 -156 -87 -258 -113 -107 -27 -279 -51 -693 -95 -660 -71 -871 -67
-1732 34 -118 14 -253 33 -299 41 -170 33 -314 92 -354 146 -42 58 -31 392 15
489 30 62 98 125 161 149 62 24 126 25 437 11z m7 -1164 c238 -52 358 -83 395
-100 83 -40 173 -168 208 -299 22 -80 23 -98 24 -622 2 -457 6 -584 25 -825
37 -464 47 -652 40 -707 -15 -109 -86 -213 -159 -233 -163 -44 -753 -46 -865
-4 -23 9 -53 65 -70 129 -33 127 -37 254 -20 626 48 1080 91 1855 105 1907 17
64 60 123 103 143 23 10 45 19 49 19 4 0 78 -15 165 -34z m2320 13 c49 -24 85
-77 102 -149 12 -51 29 -332 66 -1075 57 -1148 59 -1282 24 -1430 -16 -66 -47
-133 -68 -145 -64 -34 -505 -47 -736 -22 -143 16 -193 36 -234 95 -76 110 -77
154 -30 742 31 378 33 430 34 945 3 597 3 605 65 737 30 66 102 150 154 183
26 15 170 51 531 133 38 9 49 7 92 -14z"/>
</g>
</svg>
